<svg xmlns="http://www.w3.org/2000/svg" viewBox="0 0 350 170">
  <title>Inkline</title>
  <defs>
    <style>
      @import url('https://fonts.googleapis.com/css2?family=Cormorant+Garamond:ital,wght@1,600&amp;family=Plus+Jakarta+Sans:wght@200&amp;display=swap');
    </style>
  </defs>
  <rect width="350" height="170" fill="white"/>

  <!-- Ink blot — traced from Gemini reference -->
  <g fill="#3D2BE8">
    <path d="M 36.0,157.5 Q 34.0,157.5 33.0,157.5 Q 32.0,157.5 31.2,157.2 Q 30.5,157.0 29.8,156.8 Q 29.0,156.5 28.8,155.8 Q 28.5,155.0 28.0,154.5 Q 27.5,154.0 27.5,153.0 Q 27.5,152.0 27.5,151.0 Q 27.5,150.0 27.8,149.2 Q 28.0,148.5 28.2,147.8 Q 28.5,147.0 29.0,146.5 Q 29.5,146.0 30.0,145.5 Q 30.5,145.0 31.0,144.5 Q 31.5,144.0 32.0,143.5 Q 32.5,143.0 33.0,142.5 Q 33.5,142.0 34.2,141.8 Q 35.0,141.5 35.5,141.0 Q 36.0,140.5 36.8,140.2 Q 37.5,140.0 38.0,139.5 Q 38.5,139.0 39.2,138.8 Q 40.0,138.5 40.5,138.0 Q 41.0,137.5 41.5,137.0 Q 42.0,136.5 42.5,136.0 Q 43.0,135.5 43.8,135.2 Q 44.5,135.0 45.0,134.5 Q 45.5,134.0 46.0,133.5 Q 46.5,133.0 47.0,132.5 Q 47.5,132.0 47.8,131.2 Q 48.0,130.5 48.5,130.0 Q 49.0,129.5 49.2,128.8 Q 49.5,128.0 49.8,127.2 Q 50.0,126.5 50.2,125.8 Q 50.5,125.0 50.8,124.2 Q 51.0,123.5 51.2,122.8 Q 51.5,122.0 51.5,121.0 Q 51.5,120.0 51.5,119.0 Q 51.5,118.0 51.2,117.2 Q 51.0,116.5 50.8,115.8 Q 50.5,115.0 50.0,114.5 Q 49.5,114.0 49.0,113.5 Q 48.5,113.0 48.5,112.0 Q 48.5,111.0 48.5,110.0 Q 48.5,109.0 48.5,108.0 Q 48.5,107.0 48.0,106.5 Q 47.5,106.0 46.8,105.8 Q 46.0,105.5 45.5,105.0 Q 45.0,104.5 44.2,104.2 Q 43.5,104.0 42.8,103.8 Q 42.0,103.5 41.5,103.0 Q 41.0,102.5 40.5,102.0 Q 40.0,101.5 39.8,100.8 Q 39.5,100.0 39.0,99.5 Q 38.5,99.0 38.5,98.0 Q 38.5,97.0 39.0,96.5 Q 39.5,96.0 39.8,95.2 Q 40.0,94.5 40.5,94.0 Q 41.0,93.5 41.5,93.0 Q 42.0,92.5 42.2,91.8 Q 42.5,91.0 42.8,90.2 Q 43.0,89.5 43.0,89.0 Q 43.0,88.5 42.8,87.8 Q 42.5,87.0 42.5,86.0 Q 42.5,85.0 42.0,84.5 Q 41.5,84.0 41.2,83.2 Q 41.0,82.5 40.5,82.0 Q 40.0,81.5 39.5,81.0 Q 39.0,80.5 38.5,80.0 Q 38.0,79.5 37.2,79.2 Q 36.5,79.0 35.8,78.8 Q 35.0,78.5 34.2,78.2 Q 33.5,78.0 32.8,77.8 Q 32.0,77.5 31.0,77.5 Q 30.0,77.5 29.2,77.8 Q 28.5,78.0 27.8,78.2 Q 27.0,78.5 26.0,78.5 Q 25.0,78.5 24.2,78.8 Q 23.5,79.0 22.8,79.2 Q 22.0,79.5 21.2,79.8 Q 20.5,80.0 19.8,80.2 Q 19.0,80.5 18.0,80.5 Q 17.0,80.5 16.2,80.2 Q 15.5,80.0 14.8,79.8 Q 14.0,79.5 13.5,79.0 Q 13.0,78.5 12.5,78.0 Q 12.0,77.5 11.8,76.8 Q 11.5,76.0 11.2,75.2 Q 11.0,74.5 10.8,73.8 Q 10.5,73.0 11.0,72.5 Q 11.5,72.0 11.5,71.0 Q 11.5,70.0 12.0,69.5 Q 12.5,69.0 13.0,68.5 Q 13.5,68.0 14.2,67.8 Q 15.0,67.5 15.8,67.2 Q 16.5,67.0 17.2,66.8 Q 18.0,66.5 18.5,67.0 Q 19.0,67.5 20.0,67.5 Q 21.0,67.5 21.5,68.0 Q 22.0,68.5 23.0,68.5 Q 24.0,68.5 24.5,69.0 Q 25.0,69.5 25.8,69.8 Q 26.5,70.0 27.2,70.2 Q 28.0,70.5 28.8,70.8 Q 29.5,71.0 30.2,71.2 Q 31.0,71.5 32.0,71.5 Q 33.0,71.5 34.0,71.5 Q 35.0,71.5 36.0,71.5 Q 37.0,71.5 38.0,71.5 Q 39.0,71.5 40.0,71.5 Q 41.0,71.5 41.8,71.2 Q 42.5,71.0 43.2,70.8 Q 44.0,70.5 44.5,70.0 Q 45.0,69.5 45.5,69.0 Q 46.0,68.5 46.5,68.0 Q 47.0,67.5 47.2,66.8 Q 47.5,66.0 48.0,65.5 Q 48.5,65.0 48.2,64.2 Q 48.0,63.5 47.8,62.8 Q 47.5,62.0 47.5,61.0 Q 47.5,60.0 48.0,59.5 Q 48.5,59.0 48.5,58.0 Q 48.5,57.0 49.0,56.5 Q 49.5,56.0 49.8,55.2 Q 50.0,54.5 50.5,54.0 Q 51.0,53.5 51.8,53.2 Q 52.5,53.0 53.0,52.5 Q 53.5,52.0 54.2,51.8 Q 55.0,51.5 55.5,51.0 Q 56.0,50.5 56.8,50.2 Q 57.5,50.0 58.2,49.8 Q 59.0,49.5 59.5,49.0 Q 60.0,48.5 60.5,48.0 Q 61.0,47.5 61.5,47.0 Q 62.0,46.5 62.8,46.2 Q 63.5,46.0 64.0,45.5 Q 64.5,45.0 64.8,44.2 Q 65.0,43.5 65.5,43.0 Q 66.0,42.5 66.2,41.8 Q 66.5,41.0 67.0,40.5 Q 67.5,40.0 67.5,39.0 Q 67.5,38.0 67.5,37.0 Q 67.5,36.0 68.0,35.5 Q 68.5,35.0 68.8,34.2 Q 69.0,33.5 69.2,32.8 Q 69.5,32.0 70.2,31.8 Q 71.0,31.5 71.5,31.0 Q 72.0,30.5 73.0,30.5 Q 74.0,30.5 75.0,30.5 Q 76.0,30.5 76.8,30.8 Q 77.5,31.0 78.2,31.2 Q 79.0,31.5 79.5,32.0 Q 80.0,32.5 81.0,32.5 Q 82.0,32.5 82.5,33.0 Q 83.0,33.5 84.0,33.5 Q 85.0,33.5 86.0,33.5 Q 87.0,33.5 87.5,33.0 Q 88.0,32.5 89.0,32.5 Q 90.0,32.5 90.5,32.0 Q 91.0,31.5 91.8,31.2 Q 92.5,31.0 93.0,30.5 Q 93.5,30.0 94.2,29.8 Q 95.0,29.5 95.5,29.0 Q 96.0,28.5 97.0,28.5 Q 98.0,28.5 99.0,28.5 Q 100.0,28.5 101.0,28.5 Q 102.0,28.5 102.5,29.0 Q 103.0,29.5 103.8,29.8 Q 104.5,30.0 105.0,30.5 Q 105.5,31.0 106.2,31.2 Q 107.0,31.5 108.0,31.5 Q 109.0,31.5 109.5,32.0 Q 110.0,32.5 110.8,32.2 Q 111.5,32.0 112.2,31.8 Q 113.0,31.5 113.8,31.2 Q 114.5,31.0 115.2,30.8 Q 116.0,30.5 116.5,30.0 Q 117.0,29.5 117.5,29.0 Q 118.0,28.5 118.5,28.0 Q 119.0,27.5 119.8,27.2 Q 120.5,27.0 121.0,27.0 Q 121.5,27.0 122.2,27.2 Q 123.0,27.5 123.2,28.2 Q 123.5,29.0 124.0,29.5 Q 124.5,30.0 124.5,31.0 Q 124.5,32.0 124.5,33.0 Q 124.5,34.0 125.0,34.5 Q 125.5,35.0 125.8,35.8 Q 126.0,36.5 126.5,37.0 Q 127.0,37.5 127.8,37.8 Q 128.5,38.0 129.2,38.2 Q 130.0,38.5 131.0,38.5 Q 132.0,38.5 133.0,38.5 Q 134.0,38.5 134.5,38.0 Q 135.0,37.5 136.0,37.5 Q 137.0,37.5 137.5,37.0 Q 138.0,36.5 138.8,36.2 Q 139.5,36.0 140.0,35.5 Q 140.5,35.0 141.2,34.8 Q 142.0,34.5 142.5,34.0 Q 143.0,33.5 143.5,33.0 Q 144.0,32.5 144.5,32.0 Q 145.0,31.5 145.5,31.0 Q 146.0,30.5 146.5,30.0 Q 147.0,29.5 147.2,28.8 Q 147.5,28.0 148.0,27.5 Q 148.5,27.0 148.8,26.2 Q 149.0,25.5 149.2,24.8 Q 149.5,24.0 150.0,23.5 Q 150.5,23.0 150.8,22.2 Q 151.0,21.5 151.2,20.8 Q 151.5,20.0 152.0,19.5 Q 152.5,19.0 152.8,18.2 Q 153.0,17.5 153.2,16.8 Q 153.5,16.0 154.0,15.5 Q 154.5,15.0 155.0,14.5 Q 155.5,14.0 155.8,13.2 Q 156.0,12.5 156.8,12.2 Q 157.5,12.0 158.0,11.5 Q 158.5,11.0 159.2,10.8 Q 160.0,10.5 160.5,10.0 Q 161.0,9.5 162.0,9.5 Q 163.0,9.5 164.0,9.5 Q 165.0,9.5 165.5,10.0 Q 166.0,10.5 166.8,10.8 Q 167.5,11.0 168.0,11.5 Q 168.5,12.0 168.8,12.8 Q 169.0,13.5 169.2,14.2 Q 169.5,15.0 169.5,16.0 Q 169.5,17.0 169.2,17.8 Q 169.0,18.5 168.8,19.2 Q 168.5,20.0 168.2,20.8 Q 168.0,21.5 167.5,22.0 Q 167.0,22.5 166.5,23.0 Q 166.0,23.5 165.5,24.0 Q 165.0,24.5 164.5,25.0 Q 164.0,25.5 163.5,26.0 Q 163.0,26.5 162.2,26.8 Q 161.5,27.0 161.0,27.5 Q 160.5,28.0 159.8,28.2 Q 159.0,28.5 158.5,29.0 Q 158.0,29.5 157.2,29.8 Q 156.5,30.0 156.0,30.5 Q 155.5,31.0 154.8,31.2 Q 154.0,31.5 153.5,32.0 Q 153.0,32.5 152.5,33.0 Q 152.0,33.5 151.5,34.0 Q 151.0,34.5 150.5,35.0 Q 150.0,35.5 149.5,36.0 Q 149.0,36.5 148.8,37.2 Q 148.5,38.0 148.0,38.5 Q 147.5,39.0 147.2,39.8 Q 147.0,40.5 146.8,41.2 Q 146.5,42.0 146.2,42.8 Q 146.0,43.5 145.8,44.2 Q 145.5,45.0 145.5,46.0 Q 145.5,47.0 145.5,48.0 Q 145.5,49.0 145.5,50.0 Q 145.5,51.0 145.8,51.8 Q 146.0,52.5 146.5,53.0 Q 147.0,53.5 147.8,53.8 Q 148.5,54.0 149.2,54.2 Q 150.0,54.5 151.0,54.5 Q 152.0,54.5 152.8,54.8 Q 153.5,55.0 154.2,55.2 Q 155.0,55.5 155.2,56.2 Q 155.5,57.0 155.8,57.8 Q 156.0,58.5 156.2,59.2 Q 156.5,60.0 156.0,60.5 Q 155.5,61.0 155.2,61.8 Q 155.0,62.5 154.8,63.2 Q 154.5,64.0 154.5,65.0 Q 154.5,66.0 154.5,67.0 Q 154.5,68.0 154.5,69.0 Q 154.5,70.0 155.0,70.5 Q 155.5,71.0 155.8,71.8 Q 156.0,72.5 156.2,73.2 Q 156.5,74.0 157.0,74.5 Q 157.5,75.0 158.0,75.5 Q 158.5,76.0 159.0,76.5 Q 159.5,77.0 160.0,77.5 Q 160.5,78.0 161.0,78.5 Q 161.5,79.0 162.0,79.5 Q 162.5,80.0 163.0,80.5 Q 163.5,81.0 163.8,81.8 Q 164.0,82.5 164.2,83.2 Q 164.5,84.0 164.5,85.0 Q 164.5,86.0 164.5,87.0 Q 164.5,88.0 164.2,88.8 Q 164.0,89.5 163.8,90.2 Q 163.5,91.0 163.0,91.5 Q 162.5,92.0 162.0,92.5 Q 161.5,93.0 161.2,93.8 Q 161.0,94.5 160.8,95.2 Q 160.5,96.0 160.0,96.5 Q 159.5,97.0 159.2,97.8 Q 159.0,98.5 158.8,99.2 Q 158.5,100.0 158.2,100.8 Q 158.0,101.5 157.8,102.2 Q 157.5,103.0 157.5,104.0 Q 157.5,105.0 157.5,106.0 Q 157.5,107.0 157.5,108.0 Q 157.5,109.0 157.8,109.8 Q 158.0,110.5 158.2,111.2 Q 158.5,112.0 158.5,113.0 Q 158.5,114.0 158.2,114.8 Q 158.0,115.5 157.5,116.0 Q 157.0,116.5 156.0,116.5 Q 155.0,116.5 154.0,116.5 Q 153.0,116.5 152.5,117.0 Q 152.0,117.5 151.5,118.0 Q 151.0,118.5 150.8,119.2 Q 150.5,120.0 150.0,120.5 Q 149.5,121.0 148.8,121.2 Q 148.0,121.5 147.5,122.0 Q 147.0,122.5 146.0,122.5 Q 145.0,122.5 144.5,123.0 Q 144.0,123.5 143.8,124.2 Q 143.5,125.0 143.5,126.0 Q 143.5,127.0 143.5,128.0 Q 143.5,129.0 143.2,129.8 Q 143.0,130.5 142.8,131.2 Q 142.5,132.0 142.2,132.8 Q 142.0,133.5 141.2,133.8 Q 140.5,134.0 139.8,134.2 Q 139.0,134.5 138.0,134.5 Q 137.0,134.5 136.0,134.5 Q 135.0,134.5 134.0,134.5 Q 133.0,134.5 132.0,134.5 Q 131.0,134.5 130.0,134.5 Q 129.0,134.5 128.5,135.0 Q 128.0,135.5 127.2,135.8 Q 126.5,136.0 126.0,136.5 Q 125.5,137.0 124.8,137.2 Q 124.0,137.5 123.5,138.0 Q 123.0,138.5 122.5,139.0 Q 122.0,139.5 121.5,140.0 Q 121.0,140.5 120.5,141.0 Q 120.0,141.5 119.8,142.2 Q 119.5,143.0 118.8,143.2 Q 118.0,143.5 117.5,144.0 Q 117.0,144.5 116.2,144.8 Q 115.5,145.0 114.8,145.2 Q 114.0,145.5 113.0,145.5 Q 112.0,145.5 111.0,145.5 Q 110.0,145.5 109.0,145.5 Q 108.0,145.5 107.2,145.2 Q 106.5,145.0 105.8,144.8 Q 105.0,144.5 104.0,144.5 Q 103.0,144.5 102.0,144.5 Q 101.0,144.5 100.0,144.5 Q 99.0,144.5 98.2,144.8 Q 97.5,145.0 96.8,145.2 Q 96.0,145.5 95.5,146.0 Q 95.0,146.5 94.2,146.8 Q 93.5,147.0 92.8,147.2 Q 92.0,147.5 91.5,148.0 Q 91.0,148.5 90.0,148.5 Q 89.0,148.5 88.2,148.2 Q 87.5,148.0 87.0,147.5 Q 86.5,147.0 86.0,146.5 Q 85.5,146.0 85.0,145.5 Q 84.5,145.0 84.0,144.5 Q 83.5,144.0 83.2,143.2 Q 83.0,142.5 82.8,141.8 Q 82.5,141.0 82.0,140.5 Q 81.5,140.0 81.0,139.5 Q 80.5,139.0 79.8,138.8 Q 79.0,138.5 78.5,138.0 Q 78.0,137.5 77.0,137.5 Q 76.0,137.5 75.2,137.8 Q 74.5,138.0 73.8,138.2 Q 73.0,138.5 72.5,139.0 Q 72.0,139.5 71.0,139.5 Q 70.0,139.5 69.5,139.0 Q 69.0,138.5 68.5,138.0 Q 68.0,137.5 67.8,136.8 Q 67.5,136.0 67.5,135.0 Q 67.5,134.0 67.2,133.2 Q 67.0,132.5 66.5,132.0 Q 66.0,131.5 65.2,131.2 Q 64.5,131.0 63.8,130.8 Q 63.0,130.5 62.0,130.5 Q 61.0,130.5 60.5,131.0 Q 60.0,131.5 59.0,131.5 Q 58.0,131.5 57.5,132.0 Q 57.0,132.5 56.2,132.8 Q 55.5,133.0 54.8,133.2 Q 54.0,133.5 53.5,134.0 Q 53.0,134.5 52.5,135.0 Q 52.0,135.5 51.5,136.0 Q 51.0,136.5 50.5,137.0 Q 50.0,137.5 49.8,138.2 Q 49.5,139.0 49.0,139.5 Q 48.5,140.0 48.0,140.5 Q 47.5,141.0 47.2,141.8 Q 47.0,142.5 46.8,143.2 Q 46.5,144.0 46.0,144.5 Q 45.5,145.0 45.5,146.0 Q 45.5,147.0 45.0,147.5 Q 44.5,148.0 44.2,148.8 Q 44.0,149.5 43.8,150.2 Q 43.5,151.0 43.0,151.5 Q 42.5,152.0 42.0,152.5 Q 41.5,153.0 41.2,153.8 Q 41.0,154.5 40.5,155.0 Q 40.0,155.5 39.2,155.8 Q 38.5,156.0 37.8,156.2 Q 37.0,156.5 36.5,157.0 Q 36.0,157.5 36.0,157.5 Q 36.0,157.5 35.0,157.5 Z"/>
    <circle cx="142.1" cy="14.6" r="3.8"/>
    <circle cx="124.5" cy="18.1" r="1.2"/>
    <circle cx="160.6" cy="46.6" r="2.0"/>
    <circle cx="199.1" cy="63.3" r="3.5"/>
    <circle cx="68.9" cy="67.0" r="5.5"/>
    <circle cx="35.4" cy="112.0" r="2.8"/>
    <circle cx="166.8" cy="118.5" r="3.0"/>
    <circle cx="152.1" cy="145.1" r="4.5"/>
    <circle cx="63.1" cy="149.6" r="4.8"/>
    <circle cx="74.9" cy="156.6" r="1.8"/>
  </g>

  <!-- "ink" — italic serif, white, centred in blob -->
  <text x="89.5" y="83.0"
        font-family="'Cormorant Garamond','EB Garamond',Georgia,serif"
        font-weight="600" font-style="italic" font-size="50"
        fill="white" text-anchor="middle" dominant-baseline="central"
        letter-spacing="-1">ink</text>

  <!-- "line" — geometric sans, indigo -->
  <text x="177" y="111.0"
        font-family="'Plus Jakarta Sans','Helvetica Neue',Helvetica,Arial,sans-serif"
        font-weight="200" font-size="80"
        fill="#3D2BE8" letter-spacing="-3">line</text>
</svg>