<svg xmlns="http://www.w3.org/2000/svg" viewBox="0 0 420 140">
  <title>Inkline — ink-blot horizontal lockup (white / dark-background variant)</title>
  <desc>
    White spiky ink-splat blot with italic serif "ink" in Inkline Indigo,
    followed by geometric sans "line" in white. For use on dark surfaces.
  </desc>

  <defs>
    <style>
      @import url('https://fonts.googleapis.com/css2?family=Cormorant+Garamond:ital,wght@1,600&amp;family=Plus+Jakarta+Sans:wght@200&amp;display=swap');
    </style>
  </defs>

  <!-- Dark background -->
  <rect width="420" height="140" fill="#1A1A2E"/>

  <!-- Blob group: white fill on dark background -->
  <g transform="translate(5,5)" fill="white">
    <path d="M 70.74,35.62 Q 75.00,-8.16 77.29,12.51 Q 79.58,33.19 87.14,13.83 Q 94.70,-5.52 91.46,15.29 Q 88.21,36.10 100.69,19.00 Q 113.16,1.90 103.60,22.55 Q 94.04,43.19 109.95,30.17 Q 125.86,17.14 111.29,34.24 Q 96.72,51.34 113.85,43.51 Q 130.98,35.68 114.66,47.01 Q 98.34,58.33 119.37,54.40 Q 140.40,50.47 120.71,57.52 Q 101.02,64.57 122.82,66.29 Q 144.61,68.00 124.54,69.94 Q 104.47,71.88 123.08,78.88 Q 141.70,85.87 123.83,83.35 Q 105.97,80.83 118.96,90.86 Q 131.96,100.88 117.47,95.18 Q 102.98,89.47 111.98,101.73 Q 120.98,113.98 108.31,104.43 Q 95.63,94.88 103.52,112.98 Q 111.42,131.08 98.99,113.50 Q 86.57,95.93 91.30,121.21 Q 96.03,146.49 87.25,120.42 Q 78.47,94.35 76.73,123.08 Q 75.00,151.80 73.35,122.40 Q 71.71,92.99 63.07,118.86 Q 54.44,144.74 59.56,118.83 Q 64.68,92.92 52.39,110.68 Q 40.11,128.43 48.19,110.43 Q 56.26,92.42 42.80,103.04 Q 29.34,113.66 38.59,101.25 Q 47.83,88.85 31.72,95.57 Q 15.60,102.29 29.03,91.89 Q 42.46,81.48 24.59,83.89 Q 6.72,86.30 24.46,79.31 Q 42.20,72.32 23.69,70.16 Q 5.19,68.00 25.63,66.10 Q 46.07,64.19 28.40,57.49 Q 10.74,50.78 30.89,54.43 Q 51.04,58.07 34.74,46.71 Q 18.45,35.35 36.66,43.95 Q 54.87,52.55 39.63,34.98 Q 24.40,17.40 41.22,31.65 Q 58.05,45.91 47.84,24.59 Q 37.63,3.27 50.23,20.94 Q 62.83,38.61 58.86,15.80 Q 54.90,-7.01 62.82,14.31 Q 70.74,35.62 72.87,13.73 Z"/>
    <!-- Satellite droplets near longer spike tips -->
    <circle cx="75.00" cy="-16.16" r="2.50"/>
    <circle cx="97.75" cy="-16.91" r="3.62"/>
    <circle cx="118.38" cy="-7.14" r="3.99"/>
    <circle cx="133.07" cy="9.93" r="3.37"/>
    <circle cx="148.42" cy="48.33" r="3.81"/>
    <circle cx="156.29" cy="68.00" r="3.92"/>
    <circle cx="152.01" cy="88.63" r="3.07"/>
    <circle cx="140.57" cy="105.86" r="3.15"/>
    <circle cx="115.72" cy="138.53" r="3.77"/>
    <circle cx="99.02" cy="157.65" r="2.75"/>
    <circle cx="75.00" cy="162.70" r="3.44"/>
    <circle cx="51.93" cy="154.08" r="4.00"/>
    <circle cx="34.12" cy="138.81" r="3.56"/>
    <circle cx="5.73" cy="107.99" r="3.67"/>
    <circle cx="-3.00" cy="89.17" r="3.98"/>
    <circle cx="-4.21" cy="68.00" r="3.30"/>
    <circle cx="-0.85" cy="47.68" r="2.92"/>
    <circle cx="10.49" cy="30.76" r="3.85"/>
    <circle cx="16.46" cy="9.46" r="3.88"/>
    <circle cx="31.99" cy="-6.49" r="2.99"/>
    <circle cx="52.54" cy="-15.82" r="3.23"/>
  </g>

  <!-- "ink" — italic serif, indigo, centred in white blob -->
  <text x="80" y="73"
        font-family="'Cormorant Garamond','EB Garamond',Georgia,serif"
        font-weight="600" font-style="italic" font-size="46"
        fill="#3D2BE8" text-anchor="middle" dominant-baseline="central"
        letter-spacing="-1">ink</text>

  <!-- "line" — geometric sans, white -->
  <text x="164" y="88"
        font-family="'Plus Jakarta Sans','Helvetica Neue',Helvetica,Arial,sans-serif"
        font-weight="200" font-size="72"
        fill="white" letter-spacing="-2">line</text>
</svg>
